<svg width="1600" height="900" viewBox="0 0 1600 900" fill="none" xmlns="http://www.w3.org/2000/svg">
  <defs>
    <linearGradient id="option1-ring" x1="170" y1="120" x2="500" y2="450" gradientUnits="userSpaceOnUse">
      <stop stop-color="#067BC2"/>
      <stop offset="0.45" stop-color="#84BCDA"/>
      <stop offset="1" stop-color="#F37748"/>
    </linearGradient>
    <linearGradient id="option1-pill" x1="970" y1="455" x2="1185" y2="455" gradientUnits="userSpaceOnUse">
      <stop stop-color="#F37748"/>
      <stop offset="1" stop-color="#D56062"/>
    </linearGradient>
    <filter id="option1-shadow" x="60" y="80" width="560" height="560" filterUnits="userSpaceOnUse" color-interpolation-filters="sRGB">
      <feDropShadow dx="0" dy="24" stdDeviation="26" flood-color="#067BC2" flood-opacity="0.2"/>
    </filter>
  </defs>

  <g filter="url(#option1-shadow)">
    <circle cx="330" cy="330" r="198" fill="white"/>
    <circle cx="330" cy="330" r="184" stroke="url(#option1-ring)" stroke-width="28"/>
    <circle cx="330" cy="330" r="118" fill="#067BC2"/>
    <rect x="270" y="203" width="120" height="40" rx="18" fill="#ECC30B"/>
    <rect x="288" y="228" width="84" height="168" rx="26" fill="white"/>
    <path d="M339 244H321V288L293 334H323V420L367 339H339V244Z" fill="#F37748"/>
    <circle cx="253" cy="314" r="14" fill="#84BCDA"/>
    <circle cx="409" cy="314" r="14" fill="#D56062"/>
    <path d="M233 408C259 430 290 442 330 442C370 442 401 430 427 408" stroke="#84BCDA" stroke-width="16" stroke-linecap="round"/>
  </g>

  <path d="M658 520H932" stroke="#84BCDA" stroke-width="12" stroke-linecap="round"/>
  <text x="652" y="438" fill="#067BC2" font-size="148" font-weight="800" font-family="'Poppins', 'Montserrat', sans-serif" letter-spacing="-6">entregamais</text>
  <rect x="995" y="382" width="206" height="76" rx="38" fill="url(#option1-pill)"/>
  <text x="1037" y="434" fill="white" font-size="50" font-weight="800" font-family="'Poppins', 'Montserrat', sans-serif" letter-spacing="2">SHOP</text>
  <text x="654" y="586" fill="#84BCDA" font-size="36" font-weight="700" font-family="'Poppins', 'Montserrat', sans-serif" letter-spacing="5">DELIVERY DE BEBIDAS</text>
</svg>
